<svg id="visual" viewBox="0 0 900 600" width="900" height="600" xmlns="http://www.w3.org/2000/svg" xmlns:xlink="http://www.w3.org/1999/xlink" version="1.1"><rect x="0" y="0" width="900" height="600" fill="#001220"></rect><defs><linearGradient id="grad1_0" x1="33.3%" y1="100%" x2="100%" y2="0%"><stop offset="20%" stop-color="#98fb98" stop-opacity="1"></stop><stop offset="80%" stop-color="#98fb98" stop-opacity="1"></stop></linearGradient></defs><defs><linearGradient id="grad1_1" x1="33.3%" y1="100%" x2="100%" y2="0%"><stop offset="20%" stop-color="#98fb98" stop-opacity="1"></stop><stop offset="80%" stop-color="#001220" stop-opacity="1"></stop></linearGradient></defs><defs><linearGradient id="grad2_0" x1="0%" y1="100%" x2="66.7%" y2="0%"><stop offset="20%" stop-color="#98fb98" stop-opacity="1"></stop><stop offset="80%" stop-color="#98fb98" stop-opacity="1"></stop></linearGradient></defs><defs><linearGradient id="grad2_1" x1="0%" y1="100%" x2="66.7%" y2="0%"><stop offset="20%" stop-color="#001220" stop-opacity="1"></stop><stop offset="80%" stop-color="#98fb98" stop-opacity="1"></stop></linearGradient></defs><g transform="translate(900, 600)"><path d="M-270.4 0C-270.9 -60.5 -271.5 -120.9 -234.2 -135.2C-196.9 -149.5 -121.8 -117.7 -76.5 -132.5C-31.2 -147.3 -15.6 -208.9 0 -270.4L0 0Z" fill="#008188"></path><path d="M-135.2 0C-135.5 -30.2 -135.7 -60.5 -117.1 -67.6C-98.5 -74.8 -60.9 -58.8 -38.3 -66.3C-15.6 -73.7 -7.8 -104.4 0 -135.2L0 0Z" fill="#98fb98"></path></g><g transform="translate(0, 0)"><path d="M270.4 0C263.7 47.9 256.9 95.7 234.2 135.2C211.4 174.7 172.7 205.8 131 226.9C89.3 248 44.7 259.2 0 270.4L0 0Z" fill="#008188"></path><path d="M135.2 0C131.8 23.9 128.5 47.9 117.1 67.6C105.7 87.3 86.3 102.9 65.5 113.4C44.7 124 22.3 129.6 0 135.2L0 0Z" fill="#98fb98"></path></g></svg>