<svg id="visual" viewBox="0 0 900 600" width="900" height="600" xmlns="http://www.w3.org/2000/svg" xmlns:xlink="http://www.w3.org/1999/xlink" version="1.1"><rect x="0" y="0" width="900" height="600" fill="#001220"></rect><defs><linearGradient id="grad1_0" x1="33.3%" y1="0%" x2="100%" y2="100%"><stop offset="20%" stop-color="#98fb98" stop-opacity="1"></stop><stop offset="80%" stop-color="#98fb98" stop-opacity="1"></stop></linearGradient></defs><defs><linearGradient id="grad1_1" x1="33.3%" y1="0%" x2="100%" y2="100%"><stop offset="20%" stop-color="#98fb98" stop-opacity="1"></stop><stop offset="80%" stop-color="#52d99c" stop-opacity="1"></stop></linearGradient></defs><defs><linearGradient id="grad1_2" x1="33.3%" y1="0%" x2="100%" y2="100%"><stop offset="20%" stop-color="#00b69a" stop-opacity="1"></stop><stop offset="80%" stop-color="#52d99c" stop-opacity="1"></stop></linearGradient></defs><defs><linearGradient id="grad1_3" x1="33.3%" y1="0%" x2="100%" y2="100%"><stop offset="20%" stop-color="#00b69a" stop-opacity="1"></stop><stop offset="80%" stop-color="#009390" stop-opacity="1"></stop></linearGradient></defs><defs><linearGradient id="grad1_4" x1="33.3%" y1="0%" x2="100%" y2="100%"><stop offset="20%" stop-color="#00707d" stop-opacity="1"></stop><stop offset="80%" stop-color="#009390" stop-opacity="1"></stop></linearGradient></defs><defs><linearGradient id="grad1_5" x1="33.3%" y1="0%" x2="100%" y2="100%"><stop offset="20%" stop-color="#00707d" stop-opacity="1"></stop><stop offset="80%" stop-color="#004e63" stop-opacity="1"></stop></linearGradient></defs><defs><linearGradient id="grad1_6" x1="33.3%" y1="0%" x2="100%" y2="100%"><stop offset="20%" stop-color="#002e42" stop-opacity="1"></stop><stop offset="80%" stop-color="#004e63" stop-opacity="1"></stop></linearGradient></defs><defs><linearGradient id="grad1_7" x1="33.3%" y1="0%" x2="100%" y2="100%"><stop offset="20%" stop-color="#002e42" stop-opacity="1"></stop><stop offset="80%" stop-color="#001220" stop-opacity="1"></stop></linearGradient></defs><defs><linearGradient id="grad2_0" x1="0%" y1="0%" x2="66.7%" y2="100%"><stop offset="20%" stop-color="#98fb98" stop-opacity="1"></stop><stop offset="80%" stop-color="#98fb98" stop-opacity="1"></stop></linearGradient></defs><defs><linearGradient id="grad2_1" x1="0%" y1="0%" x2="66.7%" y2="100%"><stop offset="20%" stop-color="#52d99c" stop-opacity="1"></stop><stop offset="80%" stop-color="#98fb98" stop-opacity="1"></stop></linearGradient></defs><defs><linearGradient id="grad2_2" x1="0%" y1="0%" x2="66.7%" y2="100%"><stop offset="20%" stop-color="#52d99c" stop-opacity="1"></stop><stop offset="80%" stop-color="#00b69a" stop-opacity="1"></stop></linearGradient></defs><defs><linearGradient id="grad2_3" x1="0%" y1="0%" x2="66.7%" y2="100%"><stop offset="20%" stop-color="#009390" stop-opacity="1"></stop><stop offset="80%" stop-color="#00b69a" stop-opacity="1"></stop></linearGradient></defs><defs><linearGradient id="grad2_4" x1="0%" y1="0%" x2="66.7%" y2="100%"><stop offset="20%" stop-color="#009390" stop-opacity="1"></stop><stop offset="80%" stop-color="#00707d" stop-opacity="1"></stop></linearGradient></defs><defs><linearGradient id="grad2_5" x1="0%" y1="0%" x2="66.7%" y2="100%"><stop offset="20%" stop-color="#004e63" stop-opacity="1"></stop><stop offset="80%" stop-color="#00707d" stop-opacity="1"></stop></linearGradient></defs><defs><linearGradient id="grad2_6" x1="0%" y1="0%" x2="66.7%" y2="100%"><stop offset="20%" stop-color="#004e63" stop-opacity="1"></stop><stop offset="80%" stop-color="#002e42" stop-opacity="1"></stop></linearGradient></defs><defs><linearGradient id="grad2_7" x1="0%" y1="0%" x2="66.7%" y2="100%"><stop offset="20%" stop-color="#001220" stop-opacity="1"></stop><stop offset="80%" stop-color="#002e42" stop-opacity="1"></stop></linearGradient></defs><g transform="translate(900, 0)"><path d="M0 540.8C-34.7 504.2 -69.4 467.5 -102.1 447.5C-134.8 427.5 -165.5 424.2 -201.3 418C-237.2 411.9 -278.2 403 -296.2 371.4C-314.1 339.8 -309.1 285.5 -312.7 249.4C-316.3 213.3 -328.6 195.5 -373 179.6C-417.4 163.8 -493.9 149.9 -527.3 120.3C-560.6 90.7 -550.7 45.4 -540.8 0L0 0Z" fill="#002031"></path><path d="M0 473.2C-30.4 441.1 -60.8 409.1 -89.4 391.6C-118 374.1 -144.8 371.2 -176.2 365.8C-207.5 360.4 -243.4 352.6 -259.1 324.9C-274.9 297.3 -270.5 249.8 -273.6 218.2C-276.8 186.7 -287.5 171 -326.4 157.2C-365.2 143.3 -432.2 131.2 -461.4 105.3C-490.5 79.4 -481.9 39.7 -473.2 0L0 0Z" fill="#003e53"></path><path d="M0 405.6C-26 378.1 -52.1 350.6 -76.6 335.6C-101.1 320.6 -124.1 318.1 -151 313.5C-177.9 308.9 -208.6 302.2 -222.1 278.5C-235.6 254.8 -231.8 214.1 -234.5 187C-237.3 160 -246.5 146.6 -279.8 134.7C-313.1 122.8 -370.5 112.5 -395.5 90.3C-420.5 68.1 -413 34 -405.6 0L0 0Z" fill="#005e71"></path><path d="M0 338C-21.7 315.1 -43.4 292.2 -63.8 279.7C-84.3 267.2 -103.4 265.1 -125.8 261.3C-148.2 257.5 -173.9 251.9 -185.1 232.1C-196.3 212.3 -193.2 178.4 -195.5 155.9C-197.7 133.3 -205.4 122.2 -233.1 112.3C-260.9 102.4 -308.7 93.7 -329.5 75.2C-350.4 56.7 -344.2 28.4 -338 0L0 0Z" fill="#008188"></path><path d="M0 270.4C-17.4 252.1 -34.7 233.7 -51.1 223.7C-67.4 213.7 -82.7 212.1 -100.7 209C-118.6 206 -139.1 201.5 -148.1 185.7C-157.1 169.9 -154.6 142.7 -156.4 124.7C-158.2 106.7 -164.3 97.7 -186.5 89.8C-208.7 81.9 -247 75 -263.6 60.2C-280.3 45.4 -275.4 22.7 -270.4 0L0 0Z" fill="#00a496"></path><path d="M0 202.8C-13 189.1 -26 175.3 -38.3 167.8C-50.6 160.3 -62.1 159.1 -75.5 156.8C-88.9 154.5 -104.3 151.1 -111.1 139.3C-117.8 127.4 -115.9 107.1 -117.3 93.5C-118.6 80 -123.2 73.3 -139.9 67.4C-156.5 61.4 -185.2 56.2 -197.7 45.1C-210.2 34 -206.5 17 -202.8 0L0 0Z" fill="#2ac89c"></path><path d="M0 135.2C-8.7 126 -17.4 116.9 -25.5 111.9C-33.7 106.9 -41.4 106 -50.3 104.5C-59.3 103 -69.5 100.7 -74 92.8C-78.5 84.9 -77.3 71.4 -78.2 62.3C-79.1 53.3 -82.2 48.9 -93.3 44.9C-104.4 40.9 -123.5 37.5 -131.8 30.1C-140.2 22.7 -137.7 11.3 -135.2 0L0 0Z" fill="#75ea9a"></path><path d="M0 67.6C-4.3 63 -8.7 58.4 -12.8 55.9C-16.9 53.4 -20.7 53 -25.2 52.3C-29.6 51.5 -34.8 50.4 -37 46.4C-39.3 42.5 -38.6 35.7 -39.1 31.2C-39.5 26.7 -41.1 24.4 -46.6 22.5C-52.2 20.5 -61.7 18.7 -65.9 15C-70.1 11.3 -68.8 5.7 -67.6 0L0 0Z" fill="#98fb98"></path></g><g transform="translate(0, 600)"><path d="M0 -540.8C44.9 -546.1 89.8 -551.3 118.2 -517.7C146.5 -484.1 158.2 -411.7 186.1 -386.5C214 -361.3 258 -383.4 309.3 -387.8C360.5 -392.2 418.9 -378.8 422.8 -337.2C426.8 -295.6 376.4 -225.7 390.1 -187.9C403.9 -150 481.9 -144.1 517.7 -118.2C553.5 -92.2 547.2 -46.1 540.8 0L0 0Z" fill="#002031"></path><path d="M0 -473.2C39.3 -477.8 78.6 -482.4 103.4 -453C128.2 -423.6 138.5 -360.2 162.9 -338.2C187.3 -316.2 225.8 -335.5 270.6 -339.3C315.4 -343.1 366.5 -331.5 370 -295.1C373.5 -258.6 329.3 -197.5 341.4 -164.4C353.4 -131.3 421.6 -126.1 453 -103.4C484.3 -80.7 478.8 -40.3 473.2 0L0 0Z" fill="#003e53"></path><path d="M0 -405.6C33.7 -409.5 67.4 -413.5 88.6 -388.3C109.9 -363.1 118.7 -308.8 139.6 -289.9C160.5 -271 193.5 -287.6 231.9 -290.8C270.3 -294.1 314.1 -284.1 317.1 -252.9C320.1 -221.7 282.3 -169.3 292.6 -140.9C302.9 -112.5 361.4 -108.1 388.3 -88.6C415.1 -69.1 410.4 -34.6 405.6 0L0 0Z" fill="#005e71"></path><path d="M0 -338C28.1 -341.3 56.1 -344.6 73.8 -323.6C91.6 -302.6 98.9 -257.3 116.3 -241.6C133.8 -225.8 161.3 -239.6 193.3 -242.4C225.3 -245.1 261.8 -236.8 264.3 -210.8C266.8 -184.7 235.2 -141.1 243.8 -117.4C252.4 -93.8 301.2 -90.1 323.6 -73.8C345.9 -57.6 342 -28.8 338 0L0 0Z" fill="#008188"></path><path d="M0 -270.4C22.5 -273 44.9 -275.6 59.1 -258.8C73.2 -242 79.1 -205.8 93.1 -193.3C107 -180.7 129 -191.7 154.6 -193.9C180.2 -196.1 209.4 -189.4 211.4 -168.6C213.4 -147.8 188.2 -112.9 195.1 -93.9C201.9 -75 240.9 -72.1 258.8 -59.1C276.8 -46.1 273.6 -23 270.4 0L0 0Z" fill="#00a496"></path><path d="M0 -202.8C16.8 -204.8 33.7 -206.7 44.3 -194.1C54.9 -181.5 59.3 -154.4 69.8 -144.9C80.3 -135.5 96.8 -143.8 116 -145.4C135.2 -147.1 157.1 -142.1 158.6 -126.5C160.1 -110.8 141.1 -84.7 146.3 -70.5C151.5 -56.3 180.7 -54.1 194.1 -44.3C207.6 -34.6 205.2 -17.3 202.8 0L0 0Z" fill="#2ac89c"></path><path d="M0 -135.2C11.2 -136.5 22.5 -137.8 29.5 -129.4C36.6 -121 39.6 -102.9 46.5 -96.6C53.5 -90.3 64.5 -95.9 77.3 -96.9C90.1 -98 104.7 -94.7 105.7 -84.3C106.7 -73.9 94.1 -56.4 97.5 -47C101 -37.5 120.5 -36 129.4 -29.5C138.4 -23 136.8 -11.5 135.2 0L0 0Z" fill="#75ea9a"></path><path d="M0 -67.6C5.6 -68.3 11.2 -68.9 14.8 -64.7C18.3 -60.5 19.8 -51.5 23.3 -48.3C26.8 -45.2 32.3 -47.9 38.7 -48.5C45.1 -49 52.4 -47.4 52.9 -42.2C53.4 -36.9 47 -28.2 48.8 -23.5C50.5 -18.8 60.2 -18 64.7 -14.8C69.2 -11.5 68.4 -5.8 67.6 0L0 0Z" fill="#98fb98"></path></g></svg>